<?xml version="1.0" standalone="no"?>
<!DOCTYPE svg PUBLIC "-//W3C//DTD SVG 20010904//EN"
 "http://www.w3.org/TR/2001/REC-SVG-20010904/DTD/svg10.dtd">
<svg version="1.0" xmlns="http://www.w3.org/2000/svg"
 width="2000.000000pt" height="1250.000000pt" viewBox="0 0 2000.000000 1250.000000"
 preserveAspectRatio="xMidYMid meet">

<g transform="translate(0.000000,1250.000000) scale(0.100000,-0.100000)"
fill="#000000" stroke="none">
<path d="M9737 12490 c-2009 -85 -3838 -1121 -4952 -2805 -632 -954 -981
-2047 -1024 -3203 -65 -1745 590 -3414 1824 -4647 1235 -1234 2911 -1892 4647
-1824 1166 45 2245 390 3203 1024 939 621 1683 1466 2175 2470 455 929 668
1936 629 2977 -33 891 -241 1719 -629 2513 -588 1200 -1539 2174 -2732 2799
-950 497 -2053 742 -3141 696z m-3 -3249 c14 -76 26 -146 26 -154 0 -39 -373
-283 -677 -443 l-113 -59 0 -932 0 -933 1015 0 1015 0 0 1004 0 1004 -92 17
c-51 9 -214 37 -363 63 l-270 47 0 68 c0 37 2 155 3 262 l2 195 1718 0 1718 0
23 -127 c13 -71 25 -140 28 -154 4 -22 -4 -32 -64 -76 -165 -122 -378 -253
-645 -397 l-88 -47 0 -2393 0 -2394 23 -5 c12 -3 200 -35 417 -73 217 -37 397
-69 399 -70 2 -2 0 -120 -4 -263 l-8 -261 -1771 0 -1772 0 -27 150 c-15 83
-25 155 -22 160 11 17 196 151 302 218 132 83 255 153 391 221 l102 51 0 920
0 920 -1015 0 -1015 0 0 -984 0 -984 48 -10 c26 -5 212 -38 415 -73 l367 -64
0 -180 c0 -99 -3 -217 -7 -263 l-6 -82 -1770 2 -1771 3 -27 145 c-15 80 -28
148 -28 152 -1 10 169 136 286 212 105 68 310 184 441 250 l72 36 0 2404 0
2404 -22 5 c-13 3 -175 31 -360 63 l-338 59 0 256 c0 140 3 259 7 262 3 4 777
7 1718 7 l1712 0 27 -139z"/>
</g>
</svg>
